<?xml version="1.0" encoding="UTF-8"?>
<svg width="1246px" height="251px" viewBox="0 0 1246 251" version="1.1" xmlns="http://www.w3.org/2000/svg" xmlns:xlink="http://www.w3.org/1999/xlink">
    <defs></defs>
    <g id="Logo" stroke="none" stroke-width="1" fill="none" fill-rule="evenodd">
        <path d="M110.300268,141.15516 C116.119921,141.152168 121.949114,140.942514 127.756785,141.206138 C134.746681,141.523398 137.57259,144.138842 139.078497,151.040164 C140.959966,159.66299 139.80962,168.216962 137.562132,176.511647 C134.816125,186.646829 131.463675,196.627391 128.112242,206.587054 C124.305745,217.898693 121.03777,229.26463 120.254257,241.28538 C119.717664,249.519096 113.377768,252.405137 107.101937,246.908723 C102.210584,242.624773 98.2012276,243.031607 92.8710575,245.495245 C77.3242347,252.680982 61.1334011,251.984248 44.9045927,248.222604 C41.9869992,247.54631 39.1784506,246.135748 36.5048366,244.715855 C20.8212522,236.386527 14.866005,222.888014 19.43099,205.785292 C20.7846009,200.713667 22.8455793,195.833896 24.3039705,190.785882 C26.2218908,184.147503 28.2161617,177.498977 29.5507852,170.731408 C32.1592156,157.504658 30.4069948,144.767116 23.5740642,133.016712 C18.8443467,124.883345 13.9283695,116.843495 8.75633232,108.984798 C-0.949617532,94.2373065 -2.3540456,78.8191661 3.39128442,62.2141251 C8.11709388,48.5556751 13.5740262,35.3472497 21.2126567,23.0184468 C30.7862119,7.56655867 44.3722691,-0.389865045 62.6128117,0.0146936657 C68.9635718,0.155552597 75.3569767,0.401238746 81.6357533,1.27902256 C91.1939751,2.61528131 99.5040793,7.0448891 106.85167,13.1959072 C117.753552,22.3225357 121.600965,33.594576 116.854595,47.3383793 C115.499665,51.2619893 114.15428,55.1889607 112.786454,59.1081452 C109.755552,67.7936 107.788392,76.6101679 108.154815,85.9338867 C108.428236,92.8935592 106.90111,94.3189556 100.169912,94.5399498 C95.1869773,94.7035639 90.1907415,94.6897799 85.2066887,94.5414591 C76.4744196,94.2815882 72.9786093,91.0866799 73.6173398,82.1710637 C74.145096,74.8066456 76.0440289,67.5098252 77.7087323,60.2687599 C78.6962225,55.9731458 80.7198366,51.9169001 81.7282437,47.6242021 C83.8166315,38.7351256 79.9938917,33.678135 71.0161193,32.9010468 C56.2306762,31.6212865 47.9956035,36.5558503 42.6180162,50.3762405 C40.3144843,56.2963315 38.4446897,62.4013137 36.670946,68.507271 C33.0976667,80.8079404 34.3533997,92.6613365 40.83483,103.770065 C44.8790103,110.701564 48.8967928,117.688564 53.509342,124.241123 C66.2941198,142.403118 68.4435291,161.925499 61.8443245,182.757884 C60.0057002,188.562151 57.9432023,194.29886 56.2300702,200.138811 C52.8596496,211.628507 56.9234233,216.997103 68.9288456,217.292809 C80.7215612,217.58324 89.5539405,212.75939 93.7677773,201.617741 C97.277905,192.336755 100.149605,182.762572 102.548275,173.130365 C104.497468,165.302721 102.649503,163.104332 95.0488966,161.448686 C87.9667061,159.905947 83.5212734,152.325646 85.5633669,145.293692 C86.5110554,142.030157 89.093088,141.2229 92.010276,141.183236 C98.1058897,141.100358 104.203531,141.158156 110.300259,141.155138 L110.300268,141.15516 Z M235.66649,105.081706 C235.018811,101.554712 234.944353,99.0597798 234.092395,96.8628127 C229.882682,86.0074475 230.775375,75.2318999 234.292509,64.4809283 C236.433527,57.9364089 238.767039,51.4537792 241.042041,44.9530622 C244.732674,34.4076068 246.404289,23.7029728 245.051132,12.4604819 C243.715042,1.3592374 245.116245,0.168111997 256.628093,0.0893359491 C260.785694,0.0608819022 264.947258,-0.0147606552 269.100694,0.121304647 C277.239245,0.38790843 279.966587,2.73550913 281.056956,10.8146236 C282.397821,20.7499657 282.0946,30.6055744 278.762952,40.2149581 C276.055623,48.0235996 273.465007,55.8722672 270.746705,63.677035 C265.42184,78.965452 266.779772,93.4672875 275.665248,107.173402 C279.417235,112.961058 282.783216,119.008948 286.742325,124.648748 C299.093229,142.242572 301.176142,161.198827 294.785594,181.345435 C291.870937,190.533952 288.343036,199.547564 285.811541,208.833986 C283.14352,218.620711 280.969895,228.576964 279.257549,238.573783 C277.797122,247.099338 276.88919,248.588961 268.42243,248.848265 C262.610892,249.026249 256.765934,249.06538 250.97329,248.650762 C245.027258,248.225139 242.75967,246.081769 243.065936,240.275344 C243.411514,233.726029 244.22345,227.062703 245.95967,220.755598 C248.806472,210.41409 252.587005,200.327821 255.928706,190.119413 C259.368739,179.610727 262.318643,169.002194 262.023858,157.795505 C261.70926,145.835117 258.546746,142.676656 246.512366,142.533685 C239.029417,142.444769 231.540677,142.380973 224.061589,142.575773 C216.20452,142.780416 214.377998,144.396016 214.912719,151.839954 C215.882103,165.336971 213.089036,178.123688 208.705317,190.724567 C205.989655,198.530682 202.990179,206.268331 200.828132,214.227362 C198.744403,221.898285 197.179858,229.760953 196.100867,237.636067 C194.7536,247.469267 193.813979,248.689968 183.656509,248.898401 C179.500536,248.983683 175.338567,249.001607 171.183913,248.886208 C161.04676,248.60469 158.86206,246.537238 159.930587,236.258089 C160.665524,229.187919 162.317634,222.146557 164.241271,215.280981 C166.467616,207.334799 169.561361,199.633073 172.051613,191.754347 C174.042191,185.457036 176.061819,179.130367 177.420057,172.681759 C180.48099,158.149528 178.967336,144.150367 171.086495,131.224443 C166.34775,123.452069 161.559537,115.705508 156.608489,108.065862 C147.408825,93.8704663 145.725426,78.9120675 151.457019,63.0425497 C153.889982,56.3061471 156.111552,49.4945497 158.475336,42.7331014 C161.800484,33.2217512 163.258169,23.5132791 161.853711,13.4603048 C161.587468,11.5543446 161.414576,9.61407996 161.442204,7.69309052 C161.515547,2.58148055 163.07217,0.558557365 168.259595,0.274145427 C174.890586,-0.0894059914 181.572063,-0.0917550015 188.203254,0.26938979 C193.948664,0.582282368 196.992432,3.0037129 197.398451,9.02265683 C197.967304,17.4569859 198.213534,26.1403898 196.803896,34.415199 C195.386233,42.7365008 191.456579,50.6029678 189.212763,58.8265286 C187.195369,66.2195459 185.391905,73.7681918 184.61806,81.3614069 C184.16247,85.8318967 185.402975,90.6729361 186.757353,95.0810796 C189.015493,102.429701 194.180164,106.393527 202.25279,106.268825 C210.843173,106.13612 219.438126,106.311998 228.029321,106.208491 C230.164547,106.182789 232.293073,105.599313 235.666468,105.081693 L235.66649,105.081706 Z M379.307496,32.3871971 C365.105431,32.3628275 358.382984,36.7728402 352.94145,49.8708562 C351.452187,53.4552341 350.32825,57.1861465 348.932475,60.8105965 C342.261603,78.1348496 343.986749,94.4353763 354.535097,109.901757 C359.546163,117.249259 364.205667,124.846682 368.722778,132.504713 C375.80809,144.515974 377.744668,157.534385 374.868255,171.046979 C373.141873,179.157569 370.453056,187.065828 368.269706,195.084432 C367.326792,198.547046 366.152309,202.021092 365.825814,205.556949 C365.374392,210.443722 367.593498,214.355516 371.967187,215.255397 C386.777243,218.302532 401.051222,217.145263 407.972771,200.839618 C410.460636,194.97871 412.348106,188.857159 414.308726,182.791074 C421.043915,161.950621 418.890356,142.381747 405.954825,124.192544 C401.448193,117.855826 397.524897,111.102603 393.51695,104.432752 C386.546906,92.8325248 385.143119,80.4884882 389.034978,67.5844086 C390.555268,62.543103 392.263772,57.5560027 393.949263,52.56493 C398.962587,37.7208139 395.12251,32.4143221 379.307486,32.3871882 L379.307496,32.3871971 Z M378.724479,0.107904227 C391.330451,-0.602191314 404.437775,2.1273291 416.136284,10.2340365 C431.291329,20.7362747 435.286618,32.3161334 429.563467,49.5878095 C427.744042,55.0781441 425.673635,60.489748 423.945571,66.0068667 C419.591995,79.9075835 420.919263,93.1880283 428.740206,105.680816 C433.868806,113.873223 439.004967,122.061288 444.102906,130.27242 C450.742514,140.965974 453.869378,152.623026 452.005196,165.032844 C448.395988,189.056158 441.058819,211.626401 424.014449,230.117202 C412.716328,242.37425 399.012609,249.493856 382.063076,248.946369 C372.108979,248.624806 361.786585,248.516474 352.357549,245.824494 C338.435755,241.849773 328.081477,232.740109 327.249637,217.267291 C326.907088,210.896264 329.102373,204.301357 330.689412,197.941179 C333.083561,188.34507 336.313842,178.946067 338.537944,169.316622 C341.517652,156.415615 338.957541,144.140045 332.527836,132.659383 C329.833245,127.84789 326.754205,123.24678 323.869329,118.538533 C320.696479,113.3603 317.444938,108.225595 314.405959,102.971377 C308.138125,92.135402 306.902421,80.6570754 310.320735,68.6778574 C314.647127,53.518008 320.625552,39.0861471 328.617158,25.3838607 C338.770935,7.97359529 353.49146,-0.812622643 373.945354,0.101480669 C375.05822,0.151212298 376.17538,0.107895367 378.724452,0.107895367 L378.724479,0.107904227 Z M531.52392,250.64544 C519.30332,250.531274 510.452508,250.42743 501.986949,246.81713 C483.176269,238.795346 475.7906,224.018259 481.332198,204.447585 C483.902109,195.371083 487.104659,186.470424 489.589527,177.372892 C494.305147,160.106678 491.938771,143.806168 482.102292,128.698734 C477.856967,122.178629 473.739928,115.574813 469.444434,109.088329 C460.230599,95.1745027 458.159331,80.3969684 463.709903,64.5952989 C466.193137,57.5254408 468.51709,50.3998702 470.98544,43.3246944 C474.329938,33.7375417 475.756125,23.94768 474.471067,13.8156139 C474.192272,11.6163196 474.134149,9.38587857 474.042375,7.16698363 C473.875955,3.1382817 476.013505,0.58981789 479.842575,0.418032562 C487.059381,0.0942546107 494.317584,0.0331977071 501.526638,0.433610444 C506.263875,0.696711004 508.654928,3.98869386 509.603682,8.6258217 C511.652515,18.6372429 511.424709,28.5279836 508.336163,38.2549399 C505.817236,46.1877207 503.191445,54.1008428 500.223432,61.8746435 C493.68128,79.011162 495.530449,95.0260239 505.781343,110.232314 C510.127621,116.679811 514.078446,123.392164 518.228322,129.971959 C527.49498,144.665501 529.703502,160.441051 525.306647,177.139786 C523.683038,183.306404 521.627881,189.359083 519.824192,195.479744 C518.962934,198.403157 517.911799,201.320494 517.499828,204.316287 C516.461135,211.868176 519.738331,216.025939 527.257789,216.784598 C530.56741,217.11848 533.931282,216.999657 537.268843,216.956576 C547.209744,216.828291 554.323762,211.994755 558.323942,203.164265 C563.965066,190.710224 567.806171,177.656303 569.070427,163.987674 C569.959626,154.371441 568.151856,145.129958 563.718902,136.547308 C561.047626,131.375134 557.906055,126.441241 554.901943,121.444491 C551.467305,115.731721 547.844625,110.12943 544.492787,104.369646 C537.848049,92.9514778 536.444292,80.8447845 540.38635,68.2395232 C543.036211,59.7652938 545.975062,51.3812857 548.75361,42.9467176 C552.189269,32.51806 553.648495,21.9581848 551.832565,10.9548646 C550.478983,2.75266996 552.722176,0.366039315 561.043137,0.118221957 C566.050195,-0.0308952984 571.071323,-0.0541929162 576.075525,0.137085973 C583.684717,0.427926682 586.485903,2.93012566 587.538873,10.580741 C588.955474,20.8767476 588.584905,31.0717771 585.112534,41.0186723 C582.36825,48.8799708 579.754694,56.7865652 577.070368,64.6686967 C572.023134,79.488464 573.252925,93.6239744 581.59408,107.0322 C585.996238,114.108737 590.133878,121.354314 594.687973,128.330303 C604.544033,143.426803 607.145966,159.731862 602.508864,176.968144 C599.774981,187.130289 596.260191,197.112501 592.55267,206.9721 C590.814856,211.593172 588.079545,215.926118 585.300996,220.058092 C571.712129,240.267074 554.194873,253.356474 531.52392,250.645449 L531.52392,250.64544 Z M672.477758,250.955134 C661.068686,250.96039 649.658289,251.068928 638.250949,250.928091 C628.022196,250.801854 624.749119,247.605797 626.389941,237.700148 C628.011285,227.912555 630.730046,218.279058 633.393947,208.695613 C636.949892,195.903134 641.422053,183.34637 644.565934,170.462039 C647.710629,157.573848 645.230376,145.068937 638.680446,133.551544 C634.570896,126.325197 630.335006,119.1189 625.522158,112.350794 C613.538989,95.4993144 611.875119,77.7402211 619.537861,58.7772384 C621.716377,53.386168 623.515865,47.8397978 625.395096,42.3327752 C628.854373,32.1956273 629.887648,21.8534442 628.410183,11.189837 C627.176025,2.28315799 629.054643,0.28808837 638.06871,0.0948228267 C643.075097,-0.0125206659 648.091173,-0.0598127903 653.093483,0.123105372 C660.607042,0.397861558 662.905172,2.47526887 664.375395,9.68566832 C666.356191,19.4003436 665.889571,29.0023879 662.864589,38.4275104 C660.32489,46.3401586 657.783047,54.26393 654.860037,62.0402122 C648.540254,78.852977 650.221865,94.606573 660.260748,109.564165 C664.587499,116.010762 668.507282,122.72701 672.692394,129.269725 C682.224786,144.171831 684.406157,160.178164 679.785528,177.106449 C677.745079,184.581971 675.238623,191.931277 672.947426,199.339044 C672.210987,201.719806 671.255415,204.061716 670.804499,206.495785 C669.840051,211.701209 671.310583,213.832698 676.631963,214.295972 C681.329685,214.704976 686.083999,214.493339 690.813434,214.512335 C698.883045,214.54479 706.958264,214.368145 715.021042,214.609902 C721.782257,214.812627 723.196398,216.857347 722.104795,223.614531 C721.178282,229.349405 720.084844,235.067954 719.442018,240.835413 C718.544361,248.888582 716.859896,250.77946 708.373834,250.905087 C696.410853,251.082214 684.443388,250.949909 672.477758,250.955139 L672.477758,250.955134 Z M760.632157,0.0455628418 C763.402905,0.0455628418 766.179442,-0.0706268052 768.943186,0.0680809024 C776.241793,0.434389465 778.979038,2.63440399 780.0876,9.75809444 C781.67364,19.9521003 781.369977,30.0939467 778.00916,39.9869818 C775.350089,47.8139051 772.748177,55.6608641 770.001593,63.4573481 C764.504971,79.0599218 766.071316,93.7861262 775.184803,107.69883 C779.115793,113.699862 782.698445,119.930725 786.730045,125.861627 C798.074264,142.549616 800.169967,160.518306 794.444099,179.556843 C791.906049,187.995344 789.036416,196.336938 786.225462,204.691941 C782.441484,215.939247 778.914062,227.192559 778.194243,239.192048 C777.716868,247.149421 775.9362,248.517158 767.775637,248.821037 C762.519021,249.016744 757.239257,249.04573 751.986705,248.797934 C743.783704,248.41096 741.500891,246.273136 742.308125,237.920407 C743.044596,230.300366 744.655816,222.688632 746.672529,215.286547 C748.913412,207.061502 752.15585,199.111474 754.759285,190.977405 C756.520967,185.473118 758.144267,179.906946 759.460045,174.2829 C763.203412,158.282559 761.338479,143.09712 752.364385,129.022175 C747.765963,121.809928 743.366942,114.470991 738.720197,107.290216 C729.858899,93.5963361 728.264027,79.1369841 733.667651,63.8161699 C736.141942,56.8006415 738.453486,49.7284278 740.899554,42.7028594 C744.212858,33.186266 745.686712,23.4785616 744.282606,13.422071 C744.016403,11.515567 743.843707,9.57501108 743.869395,7.65337386 C743.938029,2.52703096 745.486911,0.691374616 750.665451,0.186597711 C753.958044,-0.134324548 757.307896,0.126583533 760.632166,0.126583533 L760.632166,0.0455717071 L760.632157,0.0455628418 Z M919.997336,141.15516 C925.816989,141.152168 931.646183,140.942514 937.453853,141.206138 C944.443749,141.523398 947.269659,144.138842 948.775565,151.040164 C950.657035,159.66299 949.506688,168.216962 947.2592,176.511647 C944.513193,186.646829 941.160744,196.627391 937.809311,206.587054 C934.002813,217.898693 930.734838,229.26463 929.951325,241.28538 C929.414732,249.519096 923.074836,252.405137 916.799005,246.908723 C911.907652,242.624773 907.898296,243.031607 902.568126,245.495245 C887.021303,252.680982 870.830469,251.984248 854.601661,248.222604 C851.684068,247.54631 848.875519,246.135748 846.201905,244.715855 C830.518321,236.386527 824.563073,222.888014 829.128058,205.785292 C830.481669,200.713667 832.542648,195.833896 834.001039,190.785882 C835.918959,184.147503 837.91323,177.498977 839.247854,170.731408 C841.856284,157.504658 840.104063,144.767116 833.271133,133.016712 C828.541415,124.883345 823.625438,116.843495 818.453401,108.984798 C808.747451,94.2373065 807.343023,78.8191661 813.088353,62.2141251 C817.814162,48.5556751 823.271095,35.3472497 830.909725,23.0184468 C840.48328,7.56655867 854.069337,-0.389865045 872.30988,0.0146936657 C878.66064,0.155552597 885.054045,0.401238746 891.332822,1.27902256 C900.891043,2.61528131 909.201148,7.0448891 916.548738,13.1959072 C927.45062,22.3225357 931.298033,33.594576 926.551664,47.3383793 C925.196734,51.2619893 923.851349,55.1889607 922.483523,59.1081452 C919.45262,67.7936 917.48546,76.6101679 917.851884,85.9338867 C918.125305,92.8935592 916.598178,94.3189556 909.86698,94.5399498 C904.884046,94.7035639 899.88781,94.6897799 894.903757,94.5414591 C886.171488,94.2815882 882.675678,91.0866799 883.314408,82.1710637 C883.842164,74.8066456 885.741097,67.5098252 887.405801,60.2687599 C888.393291,55.9731458 890.416905,51.9169001 891.425312,47.6242021 C893.5137,38.7351256 889.69096,33.678135 880.713188,32.9010468 C865.927745,31.6212865 857.692672,36.5558503 852.315085,50.3762405 C850.011553,56.2963315 848.141758,62.4013137 846.368014,68.507271 C842.794735,80.8079404 844.050468,92.6613365 850.531898,103.770065 C854.576079,110.701564 858.593861,117.688564 863.20641,124.241123 C875.991188,142.403118 878.140598,161.925499 871.541393,182.757884 C869.702769,188.562151 867.640271,194.29886 865.927139,200.138811 C862.556718,211.628507 866.620492,216.997103 878.625914,217.292809 C890.41863,217.58324 899.251009,212.75939 903.464846,201.617741 C906.974973,192.336755 909.846674,182.762572 912.245343,173.130365 C914.194536,165.302721 912.346572,163.104332 904.745965,161.448686 C897.663775,159.905947 893.218342,152.325646 895.260435,145.293692 C896.208124,142.030157 898.790156,141.2229 901.707344,141.183236 C907.802958,141.100358 913.900599,141.158156 919.997327,141.155138 L919.997336,141.15516 Z M1003.13153,63.5813582 C1002.22201,63.3042388 1001.31249,63.0271194 1000.40295,62.75 C998.871107,65.1722417 996.972064,67.4405961 995.871337,70.0435124 C991.24895,80.9743349 991.024294,92.0634975 995.993788,102.921105 C1000.00421,111.683248 1004.4451,120.251628 1008.75869,128.874385 C1015.0844,141.519261 1016.37899,154.606699 1012.44418,168.196666 C1011.90815,170.04801 1011.35105,171.904201 1010.99303,173.793705 C1009.93814,179.361113 1011.48596,181.597129 1017.14882,181.97834 C1021.83259,182.293633 1026.55319,182.15629 1031.25561,182.089964 C1042.01726,181.938186 1044.90703,179.024092 1045.08845,168.233112 C1045.30361,155.434969 1041.77477,143.705202 1034.35104,133.291796 C1027.30941,123.414335 1019.859,113.826762 1012.71405,104.020947 C1005.64893,94.3247143 1002.13471,83.5421256 1003.10114,71.446557 C1003.30935,68.8405128 1003.13153,66.2038931 1003.13153,63.5813538 L1003.13153,63.5813582 Z M1012.74243,0.0650508012 C1019.44378,0.0650508012 1026.15103,-0.109504358 1032.84488,0.113262421 C1039.78806,0.344315851 1042.22833,2.28464167 1044.31826,8.86792854 C1047.38876,18.5399988 1048.40569,28.4123052 1046.35213,38.4223566 C1044.2915,48.4669111 1041.92209,58.4491306 1039.87813,68.49684 C1037.56081,79.8883792 1039.57062,90.6859123 1045.82474,100.416016 C1050.92327,108.34826 1056.19193,116.278634 1062.29014,123.45067 C1079.22446,143.366875 1083.01161,165.798978 1076.77112,190.524961 C1075.21068,196.707816 1073.83236,202.936017 1072.3722,209.143835 C1069.95031,219.440291 1068.43869,229.805633 1068.84374,240.450985 C1069.16178,248.810463 1067.245,250.597416 1058.64318,250.870032 C1053.62438,251.029103 1048.57477,251.1003 1043.5741,250.736027 C1037.05309,250.261055 1034.53138,247.868091 1033.92408,241.460636 C1033.48107,236.786251 1033.78227,232.044555 1033.69846,227.33377 C1033.579,220.618571 1031.99867,218.597052 1025.57642,218.326725 C1018.33033,218.021752 1011.05822,218.137609 1003.80266,218.30062 C997.467974,218.44289 993.273267,221.716353 991.655742,227.813343 C990.450314,232.357051 989.51964,236.979887 988.641529,241.600282 C987.321787,248.544424 985.937863,250.061635 978.800089,250.41038 C973.514817,250.668609 968.175139,250.669194 962.908088,250.222107 C957.411929,249.755574 955.231943,247.345149 955.935925,242.017426 C956.656767,236.562101 957.815975,231.023735 959.783771,225.900889 C963.658025,215.814848 968.1518,205.959458 972.52458,196.067669 C977.238744,185.403557 981.889786,174.774144 983.991951,163.170307 C985.838838,152.975575 984.785089,143.241861 980.49929,133.928241 C977.022811,126.373364 973.360222,118.870415 969.247235,111.643692 C960.139765,95.6413609 959.742237,79.5812287 967.807419,63.1295221 C970.982746,56.6523553 973.864072,50.0333291 976.903038,43.4897977 C981.527211,33.532987 984.07156,23.1956196 983.864968,12.1122618 C983.669917,1.64932283 985.450816,0.146788328 995.988848,0.0453984526 C1001.57288,-0.00832867654 1007.15786,0.0358891077 1012.74241,0.0358891077 L1012.74243,0.0650418764 L1012.74243,0.0650508012 Z M1142.75581,119.453927 C1144.25538,122.283473 1145.55982,125.237152 1147.28702,127.922165 C1157.70673,144.120178 1159.07967,161.433248 1153.71332,179.506642 C1151.20544,187.952565 1148.31323,196.288009 1145.49702,204.640774 C1141.70564,215.884864 1138.16323,227.133195 1137.43703,239.130008 C1136.95167,247.145593 1135.19723,248.529439 1127.07382,248.821533 C1121.53613,249.020646 1115.96998,249.06018 1110.44163,248.739863 C1103.12003,248.315633 1100.84223,246.196126 1101.49121,238.829436 C1102.16314,231.20216 1103.6119,223.559332 1105.58523,216.150609 C1107.77807,207.916472 1111.06662,199.976577 1113.65173,191.837494 C1115.65129,185.542311 1117.66975,179.214509 1119.03395,172.766284 C1122.17026,157.939016 1120.55871,143.697827 1112.44323,130.549171 C1107.6606,122.800386 1102.90216,115.033816 1097.95388,107.389738 C1089.09207,93.7001918 1087.42706,79.2496514 1092.84321,63.9278299 C1095.1391,57.4335202 1097.34353,50.9073265 1099.61726,44.4052386 C1103.21435,34.1174722 1105.06187,23.6350241 1103.42552,12.7194462 C1103.14098,10.8196752 1103.1235,8.87544652 1103.05724,6.94923403 C1102.91842,2.90260157 1105.19073,0.51562111 1108.97054,0.376871726 C1116.71814,0.0924900048 1124.49705,0.0473674253 1132.23816,0.418492996 C1137.10493,0.651822071 1139.94065,4.20243856 1142.25645,8.21370778 C1149.03071,19.9468814 1152.48877,32.5341177 1152.63572,46.0557251 C1152.70767,52.6680334 1152.74303,59.2901364 1153.13896,65.8873979 C1153.78082,76.5802836 1156.71978,86.7576878 1163.76355,94.9314962 C1172.03675,104.531947 1181.15059,113.421299 1190.00692,122.516124 C1191.2762,123.819551 1193.14527,124.54625 1196.24765,126.483281 C1195.52673,123.336991 1195.50579,121.548819 1194.73406,120.178074 C1191.7581,114.891583 1188.50999,109.757098 1185.42164,104.531907 C1178.44109,92.7212166 1176.80189,80.2520676 1181.02559,67.1557098 C1183.56172,59.2915148 1186.19032,51.4545192 1188.92482,43.656366 C1192.63775,33.0686038 1194.03366,22.3116219 1192.45361,11.1253042 C1191.20485,2.28151349 1193.10014,0.285713568 1202.08004,0.094267252 C1207.06957,-0.0121060933 1212.06886,-0.0597327742 1217.05434,0.122246708 C1224.54484,0.395676864 1226.8265,2.45402614 1228.29557,9.63173836 C1230.27236,19.2898362 1229.80266,28.8356662 1226.78809,38.2056107 C1224.25724,46.072168 1221.72375,53.9496192 1218.81141,61.6809994 C1212.515,78.3958724 1214.18123,94.05768 1224.1981,108.926427 C1228.51427,115.332947 1232.42192,122.009596 1236.58891,128.517033 C1246.07734,143.334785 1248.32302,159.264439 1243.63348,176.072695 C1241.04512,185.349278 1237.95473,194.493699 1234.8926,203.632087 C1230.85793,215.671519 1227.00536,227.705065 1226.3131,240.536378 C1225.99014,246.521619 1224.09586,248.364762 1218.04314,248.664785 C1211.13108,249.007368 1204.18732,248.741326 1197.25778,248.702195 C1191.79508,248.671371 1188.24495,245.756419 1186.9338,240.753264 C1185.26473,234.38396 1183.54647,227.906754 1183.03876,221.384611 C1182.1841,210.410778 1181.88025,199.35962 1182.03085,188.350291 C1182.40076,161.340321 1170.98717,139.95599 1151.06379,122.466831 C1149.06139,120.709032 1146.74091,119.308889 1144.56798,117.742779 C1143.96393,118.313156 1143.35988,118.883546 1142.75582,119.453923 L1142.75581,119.453927 Z" id="GHOULIGAN" fill="#000000"></path>
    </g>
</svg>